<?xml version="1.0" encoding="UTF-8" standalone="no"?>
<!-- Created with Inkscape (http://www.inkscape.org/) -->

<svg
   width="120"
   height="120"
   viewBox="0 0 120 120"
   version="1.1"
   id="svg5"
   inkscape:version="1.1.2 (0a00cf5339, 2022-02-04)"
   sodipodi:docname="logo@rounded.svg"
   inkscape:export-filename="/home/aqil/Dev/41OS/FILES/logo@rounded.png"
   inkscape:export-xdpi="1000"
   inkscape:export-ydpi="1000"
   xmlns:inkscape="http://www.inkscape.org/namespaces/inkscape"
   xmlns:sodipodi="http://sodipodi.sourceforge.net/DTD/sodipodi-0.dtd"
   xmlns:xlink="http://www.w3.org/1999/xlink"
   xmlns="http://www.w3.org/2000/svg"
   xmlns:svg="http://www.w3.org/2000/svg">
  <sodipodi:namedview
     id="namedview7"
     pagecolor="#505050"
     bordercolor="#ffffff"
     borderopacity="1"
     inkscape:pageshadow="0"
     inkscape:pageopacity="0"
     inkscape:pagecheckerboard="1"
     inkscape:document-units="px"
     showgrid="false"
     inkscape:snap-global="true"
     inkscape:snap-bbox="true"
     inkscape:bbox-nodes="true"
     inkscape:bbox-paths="false"
     inkscape:snap-bbox-edge-midpoints="false"
     inkscape:snap-bbox-midpoints="false"
     inkscape:object-paths="false"
     inkscape:snap-intersection-paths="false"
     inkscape:snap-smooth-nodes="false"
     inkscape:snap-midpoints="false"
     inkscape:snap-object-midpoints="false"
     inkscape:snap-center="false"
     inkscape:object-nodes="false"
     inkscape:snap-page="true"
     inkscape:zoom="2"
     inkscape:cx="50.5"
     inkscape:cy="100.5"
     inkscape:window-width="1600"
     inkscape:window-height="864"
     inkscape:window-x="0"
     inkscape:window-y="0"
     inkscape:window-maximized="1"
     inkscape:current-layer="layer1" />
  <defs
     id="defs2">
    <linearGradient
       inkscape:collect="always"
       id="linearGradient1340">
      <stop
         style="stop-color:#000017;stop-opacity:1"
         offset="0"
         id="stop1336" />
      <stop
         style="stop-color:#00002a;stop-opacity:1"
         offset="1"
         id="stop1338" />
    </linearGradient>
    <linearGradient
       inkscape:collect="always"
       xlink:href="#linearGradient1340"
       id="linearGradient961"
       x1="0"
       y1="60"
       x2="120"
       y2="60"
       gradientUnits="userSpaceOnUse" />
  </defs>
  <g
     inkscape:label="Layer 1"
     inkscape:groupmode="layer"
     id="layer1">
    <rect
       style="fill:url(#linearGradient961);fill-opacity:1"
       id="rect953"
       width="120"
       height="120"
       x="0"
       y="0"
       rx="32" />
    <g
       aria-label="41"
       id="text4885"
       style="font-size:64px;line-height:1.25">
      <path
         d="m 66.096046,68.976003 -1.28,-4.672 h -5.376 v -15.488 q 0,-4.032 -4.608,-6.656 l -15.552,21.376 1.6,5.376 h 12.992 v 4.352 q 0,1.856 -2.176,4.224 l 6.784,4.352 5.888,-5.376 -0.576,-0.832 -1.92,1.472 -2.496,-1.792 v -6.336 z m -12.352,-4.672 h -12.736 l -0.256,-0.768 11.456,-15.424 q 0.448,0.384 0.64,0.704 0.256,0.256 0.384,0.384 0.512,0.704 0.512,1.216 z"
         style="font-family:'Old London';-inkscape-font-specification:'Old London';fill:#e1ffdd"
         id="path18606" />
      <path
         d="m 84.719958,75.632003 -0.768,-0.768 -2.432,2.112 -2.624,-2.048 v -24.512 q 0,-3.648 -1.792,-5.696 -0.64,-0.768 -2.88,-2.56 l -6.848,5.888 0.64,0.832 2.432,-1.984 q 2.624,2.24 2.624,4.864 v 22.08 q 0,1.6 -1.728,3.008 l 6.528,4.992 z"
         style="font-family:'Old London';-inkscape-font-specification:'Old London';fill:#e1ffdd"
         id="path18608" />
    </g>
  </g>
</svg>
